<?xml version="1.0" encoding="utf-8"?>
<!-- Generator: Adobe Illustrator 21.0.0, SVG Export Plug-In . SVG Version: 6.00 Build 0)  -->
<svg version="1.1" id="Layer_1" xmlns="http://www.w3.org/2000/svg" xmlns:xlink="http://www.w3.org/1999/xlink" x="0px" y="0px"
	 viewBox="0 0 1000 944" style="enable-background:new 0 0 1000 944;" xml:space="preserve">
<style type="text/css">
	.st0{fill:#FFFFFF;}
</style>
<g>
	<path class="st0" d="M1000,944.1H0V282.9L498.2,0.4L1000,282.8V944.1z M24.4,919.6h951.2V297.1L498.3,28.4L24.4,297.1V919.6z"/>
</g>
<g>
	<path class="st0" d="M128.9,378.7h24.8l29.1,68.8l29-68.8h24.8L196.3,475v58.7h-26.9V475L128.9,378.7z"/>
	<path class="st0" d="M322,379.4h23.5v154.3H322V379.4z"/>
	<path class="st0" d="M511.4,379H531v154.9h-23.6v-74.9l-26.5,70.8l-26.6-71.8v75.8h-23.5V379h19.6l30.5,83L511.4,379z"/>
	<path class="st0" d="M616.2,533.7V379.4H652c9.9,0,18.2,3.5,25.2,10.4c6.9,6.9,10.4,15.3,10.4,25.1c0,9.6-3.3,17.9-10,24.7
		c7.1,2.2,13.6,6.2,19.4,11.9c9.4,9.4,14,20.8,14,34.1c0,13.3-4.7,24.6-14.1,34c-9.4,9.4-20.7,14.1-34,14.1H616.2z M639.7,429.2H652
		c3.4,0,6.2-1.3,8.5-3.8c2.3-2.6,3.5-5.7,3.5-9.4c0-3.6-1.2-6.7-3.5-9.3c-2.3-2.5-5.2-3.8-8.5-3.8h-12.3V429.2z M639.7,457.9v35.3
		v17h23.2c6.8,0,12.6-2.6,17.4-7.7c4.8-5.1,7.2-11.3,7.2-18.5c0-7.1-2.4-13.3-7.2-18.4c-4.8-5.1-10.6-7.7-17.4-7.7H639.7z"/>
	<path class="st0" d="M763,378.7h24.8l29.1,68.8l29-68.8h24.8L830.4,475v58.7h-26.9V475L763,378.7z"/>
</g>
<g>
	<path class="st0" d="M185.3,642.9l42.1,156.4h-24l-6.6-24.7h-37.3l-6.6,24.7h-24L171,642.9H185.3z M166.2,749.7h23.9l-11.8-50
		L166.2,749.7z"/>
	<path class="st0" d="M354.6,766.5v26.8c-9.1,3.6-18.8,5.5-29.1,5.5c-11,0-21.3-2-30.9-6.1c-9.6-4.1-18-9.6-25.2-16.6
		c-7.2-7-12.9-15.2-17-24.6c-4.2-9.4-6.2-19.5-6.2-30.2c0-10.7,2.1-20.8,6.2-30.3c4.2-9.5,9.8-17.8,17-24.8
		c7.2-7,15.6-12.5,25.2-16.6c9.6-4.1,19.9-6.1,30.9-6.1c10.3,0,20.1,1.8,29.1,5.3v27.1c-2.6-1.6-5.3-3-8.2-4.2
		c-6.6-2.7-13.6-4.1-21-4.1c-7.5,0-14.5,1.4-21.1,4.1c-6.6,2.7-12.3,6.5-17.2,11.4c-4.9,4.9-8.7,10.6-11.5,17.1
		c-2.8,6.5-4.2,13.5-4.2,21c0,7.5,1.4,14.5,4.2,21c2.8,6.5,6.6,12.2,11.5,17.1c4.9,4.9,10.6,8.7,17.2,11.4
		c6.6,2.8,13.6,4.1,21.1,4.1c7.4,0,14.4-1.4,21-4.2C349.3,769.5,352,768.1,354.6,766.5z"/>
	<path class="st0" d="M390.5,643.7h100.6V668h-38.6v130.8h-23.5V668h-38.6V643.7z"/>
	<path class="st0" d="M527,644.5h23.5v154.3H527V644.5z"/>
	<path class="st0" d="M745,721.2c0,10.8-2.1,20.8-6.2,30.2c-4.2,9.4-9.8,17.6-17,24.6c-7.2,7-15.6,12.5-25.2,16.6
		c-9.6,4.1-19.8,6.1-30.8,6.1c-11,0-21.3-2-30.9-6.1c-9.6-4.1-18-9.6-25.2-16.6c-7.2-7-12.9-15.2-17-24.6
		c-4.2-9.4-6.2-19.5-6.2-30.2c0-10.7,2.1-20.8,6.2-30.3c4.2-9.5,9.8-17.8,17-24.8c7.2-7,15.6-12.5,25.2-16.6
		c9.6-4.1,19.9-6.1,30.9-6.1c11,0,21.2,2,30.8,6.1c9.6,4.1,18,9.6,25.2,16.6c7.2,7,12.9,15.3,17,24.8
		C742.9,700.4,745,710.5,745,721.2z M611.7,721.2c0,7.5,1.4,14.5,4.2,21c2.8,6.5,6.6,12.2,11.5,17.1c4.9,4.9,10.6,8.7,17.2,11.4
		c6.6,2.8,13.6,4.1,21.1,4.1c7.4,0,14.4-1.4,21-4.1c6.6-2.8,12.3-6.6,17.1-11.4c4.9-4.9,8.7-10.6,11.5-17.1c2.8-6.5,4.2-13.5,4.2-21
		c0-7.5-1.4-14.5-4.2-21c-2.8-6.5-6.6-12.2-11.5-17.1c-4.9-4.9-10.6-8.6-17.1-11.4c-6.6-2.7-13.6-4.1-21-4.1
		c-7.5,0-14.5,1.4-21.1,4.1c-6.6,2.7-12.3,6.5-17.2,11.4c-4.9,4.9-8.7,10.6-11.5,17.1C613.1,706.8,611.7,713.8,611.7,721.2z"/>
	<path class="st0" d="M859.1,798.8L804.4,703v95.8h-23.6V644.1h21.6L853,737v-93.3h23.5v155.1H859.1z"/>
</g>
</svg>
